<svg preserveAspectRatio="none" overflow="visible" style="display: block;" width="27.9998" height="28.0004" viewBox="0 0 27.9998 28.0004" fill="none" xmlns="http://www.w3.org/2000/svg">
<path id="Union" d="M26.0002 0C26.6666 0 27.2889 0.332506 27.6604 0.885742C28.0318 1.43907 28.1032 2.14105 27.8508 2.75781C26.8414 5.22463 24.8752 11.3 24.8752 16C24.8752 17.1046 23.9798 18 22.8752 18C21.7709 17.9998 20.8752 17.1044 20.8752 16C20.8752 12.9009 21.5804 9.42829 22.386 6.52051C17.3938 10.5031 10.0192 17.164 3.68579 27.0771C3.09101 28.0077 1.85379 28.2802 0.923098 27.6855C-0.00727718 27.0908 -0.279738 25.8535 0.314699 24.9229C6.02601 15.9835 12.5428 9.56736 17.5491 5.31738C14.5953 5.98365 10.9368 6.95778 6.61646 8.35742C5.56596 8.69739 4.43842 8.12164 4.0979 7.07129C3.7576 6.02064 4.3335 4.89231 5.38404 4.55176C14.6219 1.559 21.1241 0.394311 24.4153 0.0888672C24.7052 9.58368e-05 25.0083 -0.0222811 25.302 0.0224609C25.5678 0.00802858 25.8006 8.90786e-06 26.0002 0Z" fill="black"/>
</svg>
